<svg xmlns="http://www.w3.org/2000/svg" viewBox="0 0 238.25 204.78"><defs><style>.cls-1,.cls-2,.cls-3{fill:none;}.cls-1,.cls-2,.cls-3,.cls-4,.cls-5{stroke:#fff;stroke-miterlimit:10;}.cls-1,.cls-2,.cls-3,.cls-4{stroke-linecap:square;}.cls-1,.cls-4{stroke-width:7.84px;}.cls-2{stroke-width:8.02px;}.cls-3{stroke-width:7.44px;}.cls-4,.cls-5{fill:#fff;}.cls-5{stroke-width:0.71px;}</style></defs><g id="Capa_2" data-name="Capa 2"><g id="Capa_1-2" data-name="Capa 1"><path class="cls-1" d="M179.63,59.3a18.73,18.73,0,1,0,18.73-18.73A18.73,18.73,0,0,0,179.63,59.3Z"/><path class="cls-1" d="M71,113c0,48.52,14,87.78,31.31,87.78"/><path class="cls-1" d="M14.38,103.62C2.64,86.36.45,67.38,9.49,61.23s25.89,2.85,37.63,20.11S61.05,117.58,52,123.73,26.13,120.87,14.38,103.62Z"/><path class="cls-1" d="M200,89.29c0,9.88-22.94,17.88-51.28,17.88"/><path class="cls-2" d="M202,117.57c0,46-16.53,83.2-37,83.2"/><path class="cls-1" d="M201.36,29.3C200.17,12.8,165,1.93,122.76,5"/><path class="cls-1" d="M69.13,85.44c0,12,34,21.73,76,21.73"/><path class="cls-1" d="M234.33,140c0,12.37-4.21,22.4-9.4,22.4s-9.4-10-9.4-22.4,4.21-22.4,9.4-22.4S234.33,127.6,234.33,140Z"/><path class="cls-3" d="M133.92,89.69c-4.57,4.72-13.85,3.14-20.75-3.53"/><path class="cls-1" d="M53.19,40.16A36.24,36.24,0,1,0,89.43,3.92,36.24,36.24,0,0,0,53.19,40.16Z"/><path class="cls-4" d="M66.15,24.43c-5.42,7.12,2.62,15.16,9.74,9.74h0C81.31,27.05,73.26,19,66.15,24.43Z"/><path class="cls-5" d="M189.85,52.66c-3.52,4.63,1.71,9.85,6.33,6.33h0C199.71,54.36,194.48,49.13,189.85,52.66Z"/></g></g></svg>